<?xml version="1.0" encoding="utf-8"?>
<!-- Generator: Adobe Illustrator 25.3.1, SVG Export Plug-In . SVG Version: 6.00 Build 0)  -->
<svg version="1.1" baseProfile="basic" id="Layer_1"
	 xmlns="http://www.w3.org/2000/svg" xmlns:xlink="http://www.w3.org/1999/xlink" x="0px" y="0px" viewBox="0 0 21.3 20.9"
	 xml:space="preserve">
<style type="text/css">
	.st0{fill:#FFFFFF;}
</style>
<g>
	<path class="st0" d="M20.3,8.4c-0.4,1.5-1.3,3.3-2.6,5c-0.7,0.9-1.4,1.7-2.1,2.4c-1.7,1.7-3.6,3-5.3,3.8c2.9,0,5.6-1.2,7.5-3.2
		C19.7,14.4,20.8,11.4,20.3,8.4z"/>
	<path class="st0" d="M17.7,10.4c1.7-2.4,3-4.9,3.4-6.9c0.1-0.4,0.1-0.8,0.1-1.3V2.1c0-1-0.3-1.6-1.2-2c-0.6-0.2-1.4-0.1-2.3,0.1
		c-0.7,0.2-1.6,0.6-2.5,1.2C11-0.9,5.6,0,2.5,3.4C0,6.1-0.8,10.5,0.9,13.8l0,0c-0.7-1.6-0.7-3.4-0.3-5.1c0.1-0.3,0.2-0.7,0.3-1
		c0-0.1,0.1-0.2,0.1-0.2C1,7.3,1.1,7.1,1.2,7c1.1-2.1,2.9-3.4,4.4-2.8C6.9,4.8,7.3,7,6.2,9.3c-0.3,0.6-1,1.9-1.8,3.3
		c-2,3.4-3.8,7.8-0.8,8.3c0.9,0.1,1.9-0.2,3-0.7C10.4,18.8,14.8,14.6,17.7,10.4z M17.7,1c1.8-0.5,2.5,0.6,1.1,3.6
		c-0.3-0.5-0.7-0.9-1.1-1.3c-0.5-0.5-1.1-1-1.8-1.5C16.6,1.4,17.2,1.1,17.7,1L17.7,1z"/>
</g>
</svg>
